<svg xmlns="http://www.w3.org/2000/svg" viewBox="0 0 100 100" width="200" height="200">
  <rect width="100" height="100" fill="#f9f9f9"/>
  <path d="M50 20c-8 0-15 6-15 14 0 4 2 8 5 10l-5 15h20l-5-15c3-2 5-6 5-10 0-8-7-14-15-14z" fill="#333"/>
  <circle cx="42" cy="30" r="3" fill="#fff"/>
  <circle cx="58" cy="30" r="3" fill="#fff"/>
  <circle cx="42" cy="30" r="1.5" fill="#333"/>
  <circle cx="58" cy="30" r="1.5" fill="#333"/>
  <path d="M50 35c-2 0-3 2-3 4s1 4 3 4 3-2 3-4-1-4-3-4z" fill="#333"/>
  <path d="M35 45c-5 0-9 4-9 9v5h28v-5c0-5-4-9-9-9z" fill="#333"/>
  <path d="M25 54h50v2h-50z" fill="#333"/>
  <path d="M35 60h30v2h-30z" fill="#333"/>
  <path d="M40 65h20v2h-20z" fill="#333"/>
</svg>