<svg width="500" height="500" viewBox="0 0 500 500" xmlns="http://www.w3.org/2000/svg">
  <g transform="translate(230, 250)">
    <circle cx="0" cy="-75" r="25" fill="black"/>
    <path d="M0,-75 a20,20 0 1,1 -5,5 a20,20 0 0,1 5,-5Z" fill="white"/>
    <path d="M-20,-80 C-30,-90 -20,-110 -10,-100 C0,-110 10,-90 0,-80" stroke="black" stroke-width="3" fill="none"/>
    <circle cx="-10" cy="-60" r="8" fill="black"/>
    <circle cx="10" cy="-60" r="8" fill="black"/>
    <path d="M-15,-65 C-15,-85 15,-85 15,-65" stroke="black" stroke-width="4" fill="none"/>
    <path d="M-40,0 L40,0" stroke="black" stroke-width="4"/>
    <path d="M-40,0 C-50,-20 -20,-35 -10,-20" stroke="black" stroke-width="4" fill="none"/>
    <path d="M40,0 C50,-20 20,-35 10,-20" stroke="black" stroke-width="4" fill="none"/>
    <circle cx="-30" cy="25" r="15" fill="black"/>
    <circle cx="30" cy="25" r="15" fill="black"/>
    <path d="M-30,25 C-50,50 20,50 30,25" stroke="black" stroke-width="3" fill="none"/>
    <path d="M0,-125 L0,-160" stroke="black" stroke-width="4"/>
    <path d="M-20,-140 L20,-140" stroke="black" stroke-width="4"/>
  </g>
</svg>