<svg viewBox="0 0 600 500" xmlns="http://www.w3.org/2000/svg">
  <defs>
    <!-- Fur texture gradient -->
    <radialGradient id="furBase" cx="30%" cy="30%" r="70%">
      <stop offset="0%" stop-color="#e8d4b8"/>
      <stop offset="50%" stop-color="#c4a574"/>
      <stop offset="100%" stop-color="#8b6914"/>
    </radialGradient>
    
    <!-- Darker fur for shading -->
    <radialGradient id="furDark" cx="50%" cy="20%" r="80%">
      <stop offset="0%" stop-color="#a08050"/>
      <stop offset="100%" stop-color="#5a4010"/>
    </radialGradient>
    
    <!-- Ear inner -->
    <linearGradient id="earInner" x1="0%" y1="0%" x2="0%" y2="100%">
      <stop offset="0%" stop-color="#f5d5c8"/>
      <stop offset="100%" stop-color="#d4a090"/>
    </linearGradient>
    
    <!-- Eye gradient -->
    <radialGradient id="eyeGreen" cx="40%" cy="40%" r="60%">
      <stop offset="0%" stop-color="#90d060"/>
      <stop offset="50%" stop-color="#4a8020"/>
      <stop offset="100%" stop-color="#2a5010"/>
    </radialGradient>
    
    <!-- Nose gradient -->
    <radialGradient id="nosePink" cx="30%" cy="30%" r="70%">
      <stop offset="0%" stop-color="#f5a0a0"/>
      <stop offset="100%" stop-color="#c06060"/>
    </radialGradient>
    
    <!-- Soft shadow -->
    <filter id="softBlur" x="-50%" y="-50%" width="200%" height="200%">
      <feGaussianBlur in="SourceGraphic" stdDeviation="3"/>
    </filter>
    
    <!-- Fur noise filter -->
    <filter id="furNoise">
      <feTurbulence type="fractalNoise" baseFrequency="0.15" numOctaves="3" result="noise"/>
      <feColorMatrix type="matrix" values="1 0 0 0 0  0 1 0 0 0  0 0 1 0 0  0 0 0 0.3 0" in="noise" result="coloredNoise"/>
      <feBlend in="SourceGraphic" in2="coloredNoise" mode="multiply"/>
    </filter>
  </defs>
  
  <!-- Ground shadow -->
  <ellipse cx="300" cy="460" rx="180" ry="35" fill="#3a3020" opacity="0.4" filter="url(#softBlur)"/>
  
  <!-- Tail -->
  <path d="M 420 380 Q 520 360 540 280 Q 560 200 500 180 Q 460 170 450 220 Q 440 260 400 320" 
        fill="url(#furDark)" stroke="#6b5010" stroke-width="1"/>
  
  <!-- Tail fur texture -->
  <path d="M 430 360 Q 480 340 500 300 M 450 340 Q 490 320 510 280 M 470 320 Q 500 300 520 260" 
        stroke="#a08050" stroke-width="2" fill="none" opacity="0.6"/>
  
  <!-- Back left leg -->
  <ellipse cx="200" cy="420" rx="55" ry="40" fill="url(#furDark)"/>
  <ellipse cx="200" cy="435" rx="50" ry="25" fill="#c4a574"/>
  
  <!-- Body main -->
  <ellipse cx="300" cy="350" rx="110" ry="130" fill="url(#furBase)" filter="url(#furNoise)"/>
  
  <!-- Body shading -->
  <ellipse cx="300" cy="380" rx="90" ry="100" fill="url(#furDark)" opacity="0.5"/>
  <path d="M 220 300 Q 250 400 300 420 Q 350 400 380 300" fill="none" stroke="#a08050" stroke-width="20" opacity="0.3" filter="url(#softBlur)"/>
  
  <!-- Body fur strokes -->
  <g stroke="#8b6914" stroke-width="1.5" fill="none" opacity="0.4">
    <path d="M 250 280 Q 260 320 255 360"/>
    <path d="M 280 270 Q 290 310 285 350"/>
    <path d="M 320 270 Q 330 310 325 350"/>
    <path d="M 350 280 Q 360 320 355 360"/>
    <path d="M 230 320 Q 240 360 235 400"/>
    <path d="M 370 320 Q 380 360 375 400"/>
  </g>
  
  <!-- Front legs -->
  <!-- Left front -->
  <path d="M 245 380 Q 235 450 245 470 Q 265 475 280 470 Q 290 450 285 380" 
        fill="url(#furBase)" stroke="#a08050" stroke-width="1"/>
  <ellipse cx="262" cy="468" rx="18" ry="12" fill="#d4b890"/>
  
  <!-- Right front -->
  <path d="M 315 380 Q 305 450 315 470 Q 335 475 350 470 Q 360 450 355 380" 
        fill="url(#furBase)" stroke="#a08050" stroke-width="1"/>
  <ellipse cx="332" cy="468" rx="18" ry="12" fill="#d4b890"/>
  
  <!-- Front leg shading -->
  <path d="M 250 400 Q 245 440 250 460" stroke="#8b6914" stroke-width="8" opacity="0.3" fill="none" filter="url(#softBlur)"/>
  <path d="M 320 400 Q 315 440 320 460" stroke="#8b6914" stroke-width="8" opacity="0.3" fill="none" filter="url(#softBlur)"/>
  
  <!-- Chest fur -->
  <ellipse cx="300" cy="420" rx="40" ry="30" fill="#e8d4b8"/>
  <g stroke="#c4a574" stroke-width="1" fill="none" opacity="0.6">
    <path d="M 280 410 Q 300 430 320 410"/>
    <path d="M 275 420 Q 300 440 325 420"/>
    <path d="M 285 400 Q 300 415 315 400"/>
  </g>
  
  <!-- Head -->
  <ellipse cx="300" cy="220" rx="85" ry="70" fill="url(#furBase)" filter="url(#furNoise)"/>
  
  <!-- Head shading -->
  <ellipse cx="300" cy="240" rx="70" ry="55" fill="url(#furDark)" opacity="0.35"/>
  
  <!-- Cheek fluff -->
  <path d="M 220 240 Q 210 260 225 270 Q 215 280 230 285" fill="url(#furBase)" stroke="#a08050" stroke-width="1"/>
  <path d="M 380 240 Q 390 260 375 270 Q 385 280 370 285" fill="url(#furBase)" stroke="#a08050" stroke-width="1"/>
  
  <!-- Ear left -->
  <path d="M 235 175 Q 220 110 260 130 Q 280 150 275 180" fill="url(#furBase)" stroke="#8b6914" stroke-width="1"/>
  <path d="M 240 165 Q 232 125 255 140 Q 268 155 265 175" fill="url(#earInner)"/>
  
  <!-- Ear right -->
  <path d="M 365 175 Q 380 110 340 130 Q 320 150 325 180" fill="url(#furBase)" stroke="#8b6914" stroke-width="1"/>
  <path d="M 360 165 Q 368 125 345 140 Q 332 155 335 175" fill="url(#earInner)"/>
  
  <!-- Ear fur detail -->
  <path d="M 225 130 Q 235 140 245 135" stroke="#5a4010" stroke-width="2" fill="none"/>
  <path d="M 375 130 Q 365 140 355 135" stroke="#5a4010" stroke-width="2" fill="none"/>
  
  <!-- Forehead stripes -->
  <g stroke="#6b5010" stroke-width="3" fill="none" opacity="0.5">
    <path d="M 300 155 L 295 175 M 300 155 L 300 178 M 300 155 L 305 175"/>
    <path d="M 285 160 L 280 180 M 285 160 L 285 183"/>
    <path d="M 315 160 L 320 180 M 315 160 L 315 183"/>
  </g>
  
  <!-- Eyes -->
  <g>
    <!-- Left eye -->
    <ellipse cx="265" cy="230" rx="22" ry="18" fill="url(#eyeGreen)"/>
    <ellipse cx="265" cy="230" rx="22" ry="18" fill="none" stroke="#2a5010" stroke-width="2"/>
    <ellipse cx="260" cy="225" rx="8" ry="6" fill="#e8f5d0"/>
    <circle cx="268" cy="232" r="3" fill="#1a3010"/>
    <ellipse cx="265" cy="230" rx="22" ry="18" fill="none" stroke="#1a3010" stroke-width="1"/>
    <!-- Eyelid -->
    <path d="M 243 230 Q 265 210 287 230" fill="none" stroke="#5a4010" stroke-width="2"/>
    
    <!-- Right eye -->
    <ellipse cx="335" cy="230" rx="22" ry="18" fill="url(#eyeGreen)"/>
    <ellipse cx="335" cy="230" rx="22" ry="18" fill="none" stroke="#2a5010" stroke-width="2"/>
    <ellipse cx="330" cy="225" rx="8" ry="6" fill="#e8f5d0"/>
    <circle cx="338" cy="232" r="3" fill="#1a3010"/>
    <ellipse cx="335" cy="230" rx="22" ry="18" fill="none" stroke="#1a3010" stroke-width="1"/>
    <!-- Eyelid -->
    <path d="M 313 230 Q 335 210 357 230" fill="none" stroke="#5a4010" stroke-width="2"/>
  </g>
  
  <!-- Nose -->
  <path d="M 290 265 Q 300 260 310 265 Q 300 285 290 265" fill="url(#nosePink)"/>
  <path d="M 290 265 Q 300 260 310 265" fill="none" stroke="#a05050" stroke-width="1"/>
  
  <!-- Mouth -->
  <path d="M 300 282 Q 290 295 280 290" fill="none" stroke="#5a4010" stroke-width="2" stroke-linecap="round"/>
  <path d="M 300 282 Q 310 295 320 290" fill="none" stroke="#5a4010" stroke-width="2" stroke-linecap="round"/>
  <line x1="300" y1="275" x2="300" y2="282" stroke="#5a4010" stroke-width="2"/>
  
  <!-- Whiskers -->
  <g stroke="#d0c0a0" stroke-width="1" fill="none" opacity="0.8">
    <path d="M 280 275 L 220 265"/>
    <path d="M 280 280 L 215 285"/>
    <path d="M 280 285 L 225 300"/>
    <path d="M 320 275 L 380 265"/>
    <path d="M 320 280 L 385 285"/>
    <path d="M 320 285 L 375 300"/>
  </g>
  
  <!-- Nose bridge fur -->
  <g stroke="#c4a574" stroke-width="1" fill="none" opacity="0.6">
    <path d="M 295 250 Q 300 260 305 250"/>
    <path d="M 292 255 Q 300 265 308 255"/>
  </g>
  
  <!-- Chin -->
  <ellipse cx="300" cy="295" rx="25" ry="15" fill="#e8d4b8"/>
  
  <!-- Head fur texture -->
  <g stroke="#a08050" stroke-width="1" fill="none" opacity="0.4">
    <path d="M 260 200 Q 265 220 262 240"/>
    <path d="M 340 200 Q 335 220 338 240"/>
    <path d="M 280 190 Q 285 210 282 230"/>
    <path d="M 320 190 Q 315 210 318 230"/>
  </g>
  
  <!-- Side whisker dots -->
  <g fill="#5a4010" opacity="0.3">
    <circle cx="275" cy="270" r="1"/>
    <circle cx="272" cy="275" r="1"/>
    <circle cx="270" cy="280" r="1"/>
    <circle cx="325" cy="270" r="1"/>
    <circle cx="328" cy="275" r="1"/>
    <circle cx="330" cy="280" r="1"/>
  </g>
  
  <!-- Back right leg (visible part) -->
  <ellipse cx="400" cy="400" rx="45" ry="35" fill="url(#furDark)"/>
  <ellipse cx="400" cy="415" rx="40" ry="20" fill="#c4a574"/>
  
  <!-- Paws detail -->
  <g stroke="#8b6910" stroke-width="1" fill="none" opacity="0.5">
    <path d="M 255 465 L 255 470 M 262 465 L 262 470 M 269 465 L 269 470"/>
    <path d="M 325 465 L 325 470 M 332 465 L 332 470 M 339 465 L 339 470"/>
    <path d="M 390 410 L 390 420 M 400 410 L 400 420 M 410 410 L 410 420"/>
  </g>
  
  <!-- Subtle highlight on back -->
  <ellipse cx="280" cy="280" rx="40" ry="60" fill="#f5e6d0" opacity="0.2" filter="url(#softBlur)"/>
  
</svg>