<svg xmlns="http://www.w3.org/2000/svg" viewBox="0 0 200 200" width="200" height="200">
  <!-- Tail -->
  <path d="M 148 145 Q 188 125, 175 85" stroke="#E8A87C" stroke-width="14" fill="none" stroke-linecap="round"/>
  
  <!-- Body -->
  <ellipse cx="100" cy="148" rx="46" ry="34" fill="#E8A87C"/>
  
  <!-- Chest patch -->
  <ellipse cx="100" cy="160" rx="22" ry="20" fill="#F4D4B8"/>
  
  <!-- Head -->
  <circle cx="100" cy="95" r="40" fill="#E8A87C"/>
  
  <!-- Ears (outer) -->
  <polygon points="68,72 76,32 96,60" fill="#E8A87C"/>
  <polygon points="132,72 124,32 104,60" fill="#E8A87C"/>
  
  <!-- Ears (inner) -->
  <polygon points="78,60 82,44 91,58" fill="#FFC4A3"/>
  <polygon points="122,60 118,44 109,58" fill="#FFC4A3"/>
  
  <!-- Eyes -->
  <ellipse cx="85" cy="95" rx="5" ry="7" fill="#2C3E50"/>
  <ellipse cx="115" cy="95" rx="5" ry="7" fill="#2C3E50"/>
  <circle cx="86" cy="93" r="1.5" fill="#FFFFFF"/>
  <circle cx="116" cy="93" r="1.5" fill="#FFFFFF"/>
  
  <!-- Nose -->
  <path d="M 95 108 L 105 108 L 100 114 Z" fill="#D64545"/>
  
  <!-- Mouth -->
  <path d="M 100 114 Q 100 121 94 122" stroke="#2C3E50" stroke-width="2" fill="none" stroke-linecap="round"/>
  <path d="M 100 114 Q 100 121 106 122" stroke="#2C3E50" stroke-width="2" fill="none" stroke-linecap="round"/>
  
  <!-- Whiskers -->
  <line x1="60" y1="106" x2="80" y2="108" stroke="#2C3E50" stroke-width="1.5" stroke-linecap="round"/>
  <line x1="60" y1="116" x2="80" y2="113" stroke="#2C3E50" stroke-width="1.5" stroke-linecap="round"/>
  <line x1="140" y1="106" x2="120" y2="108" stroke="#2C3E50" stroke-width="1.5" stroke-linecap="round"/>
  <line x1="140" y1="116" x2="120" y2="113" stroke="#2C3E50" stroke-width="1.5" stroke-linecap="round"/>
</svg>