<svg width="200" height="200" viewBox="0 0 200 200" xmlns="http://www.w3.org/2000/svg">
  <path d="M100 50 L120 30 L130 50 L120 70 Z" fill="#FAC81E" stroke="#000" stroke-width="1"/>
  <path d="M100 50 L80 30 L70 50 L80 70 Z" fill="#FAC81E" stroke="#000" stroke-width="1"/>
  <path d="M100 50 L150 100 L100 150 L50 100 Z" fill="#FAC81E" stroke="#000" stroke-width="2"/>
  <path d="M100 70 L120 90 L110 110 L100 90 Z" fill="#FAC81E" stroke="#000" stroke-width="1"/>
  <path d="M100 70 L80 90 L90 110 L100 90 Z" fill="#FAC81E" stroke="#000" stroke-width="1"/>
  <path d="M100 110 L120 130 L110 150 L100 130 Z" fill="#FAC81E" stroke="#000" stroke-width="1"/>
  <path d="M100 110 L80 130 L90 150 L100 130 Z" fill="#FAC81E" stroke="#000" stroke-width="1"/>
  <line x1="100" y1="50" x2="100" y2="150" stroke="#000" stroke-width="2"/>
  <line x1="50" y1="100" x2="150" y2="100" stroke="#000" stroke-width="2"/>
</svg>