<svg width="200" height="200" viewBox="0 0 200 200" xmlns="http://www.w3.org/2000/svg">
  <rect x="50" y="80" width="100" height="50" fill="#f7f7f7" stroke="#000" stroke-width="1"/>
  <polygon points="50,80 75,50 100,80" fill="#f7f7f7" stroke="#000" stroke-width="1"/>
  <polygon points="100,80 125,50 150,80" fill="#f7f7f7" stroke="#000" stroke-width="1"/>
  <polygon points="50,80 60,120 75,120 75,110" fill="#f7f7f7" stroke="#000" stroke-width="1"/>
  <polygon points="150,80 140,120 125,120 125,110" fill="#f7f7f7" stroke="#000" stroke-width="1"/>
  <circle cx="85" cy="85" r="5" fill="#000"/>
  <circle cx="115" cy="85" r="5" fill="#000"/>
  <path d="M85,90 C85,100 115,100 115,90" stroke="#000" stroke-width="3" fill="none"/>
  <path d="M65,115 Q75,120 85,115" stroke="#000" stroke-width="2" fill="none"/>
  <path d="M135,115 Q125,120 115,115" stroke="#000" stroke-width="2" fill="none"/>
</svg>