<svg viewBox="0 0 100 100" xmlns="http://www.w3.org/2000/svg">
  <path d="M30 60 Q20 50 20 40 Q20 30 30 25 Q35 20 40 25 Q45 20 50 25 Q55 20 60 25 Q70 30 70 40 Q70 50 60 60 L60 70 Q60 80 50 80 Q40 80 40 70 Z" fill="#555"/>
  <path d="M35 55 L35 65 Q35 68 37 68 L43 68 Q45 68 45 65 L45 55 Z" fill="#fff"/>
  <path d="M55 55 L55 65 Q55 68 57 68 L63 68 Q65 68 65 65 L65 55 Z" fill="#fff"/>
  <circle cx="40" cy="60" r="2" fill="#000"/>
  <circle cx="60" cy="60" r="2" fill="#000"/>
  <path d="M45 65 Q50 70 55 65" stroke="#000" stroke-width="1" fill="none"/>
  <path d="M25 45 L20 35" stroke="#555" stroke-width="2" stroke-linecap="round"/>
  <path d="M75 45 L80 35" stroke="#555" stroke-width="2" stroke-linecap="round"/>
  <path d="M35 30 L30 25" stroke="#555" stroke-width="2" stroke-linecap="round"/>
  <path d="M65 30 L70 25" stroke="#555" stroke-width="2" stroke-linecap="round"/>
  <circle cx="50" cy="40" r="3" fill="#f9c"/>
</svg>