<svg xmlns="http://www.w3.org/2000/svg" viewBox="0 0 200 200" width="100%" height="100%">
  <ellipse cx="100" cy="110" rx="80" ry="70" fill="#fdfefe" />
  <path d="M 35 65 L 10 -5 L 75 25 Z" fill="#d5d8dc" />
  <path d="M 165 65 L 190 -5 L 125 25 Z" fill="#d5d8dc" />
  <path d="M 40 55 L 22 8 L 65 28 Z" fill="#f5b7b1" />
  <path d="M 160 55 L 178 8 L 135 28 Z" fill="#f5b7b1" />
  <circle cx="65" cy="95" r="16" fill="#2ecc71" />
  <circle cx="135" cy="95" r="16" fill="#2ecc71" />
  <rect x="61" y="83" width="8" height="24" rx="4" fill="#1a1a1a" />
  <rect x="131" y="83" width="8" height="24" rx="4" fill="#1a1a1a" />
  <polygon points="100,115 95,125 105,125" fill="#f5b7b1" />
  <path d="M 100 125 Q 85 140 75 130 M 100 125 Q 115 140 125 130 M 45 95 L 5 85 M 45 105 L 5 105 M 45 115 L 5 125 M 155 95 L 195 85 M 155 105 L 195 105 M 155 115 L 195 125" fill="none" stroke="#7f8c8d" stroke-width="3" stroke-linecap="round" />
</svg>