<svg xmlns="http://www.w3.org/2000/svg" viewBox="0 0 300 400" width="100%" height="100%">
  <!-- Body -->
  <path d="M 150 350 C 70 350, 50 230, 70 180 C 85 130, 110 80, 150 80 C 190 80, 215 130, 230 180 C 250 230, 230 350, 150 350 Z" fill="#34495E" />
  
  <!-- Left Ear -->
  <polygon points="85,115 115,40 140,95" fill="#34495E" />
  
  <!-- Right Ear -->
  <polygon points="215,115 185,40 160,95" fill="#34495E" />
  
  <!-- Tail -->
  <path d="M 100 320 Q 30 280 40 250" fill="none" stroke="#34495E" stroke-width="20" stroke-linecap="round" />
  
  <!-- Left Eye -->
  <circle cx="125" cy="140" r="10" fill="#F39C12" />
  
  <!-- Left Pupil -->
  <circle cx="128" cy="140" r="5" fill="#2C3E50" />
  
  <!-- Right Eye -->
  <circle cx="175" cy="140" r="10" fill="#F39C12" />
  
  <!-- Right Pupil -->
  <circle cx="172" cy="140" r="5" fill="#2C3E50" />
  
  <!-- Nose -->
  <polygon points="150,165 145,175 155,175" fill="#E74C3C" />
  
  <!-- Mouth -->
  <path d="M 150 175 Q 140 185 130 180 M 150 175 Q 160 185 170 180" fill="none" stroke="#2C3E50" stroke-width="2" stroke-linecap="round" />
  
  <!-- Combined Whiskers -->
  <path d="M 110 160 L 50 150 M 110 170 L 50 170 M 110 180 L 50 190 M 190 160 L 250 150 M 190 170 L 250 170 M 190 180 L 250 190" fill="none" stroke="#ECF0F1" stroke-width="2" stroke-linecap="round" />
  
  <!-- Collar -->
  <path d="M 85 210 Q 150 230 215 210 L 215 225 Q 150 245 85 225 Z" fill="#E74C3C" />
</svg>