<svg width="200" height="200" viewBox="0 0 200 200" xmlns="http://www.w3.org/2000/svg">
  <ellipse cx="100" cy="120" rx="40" ry="30" fill="#ffa500" stroke="#000" stroke-width="2"/>
  <circle cx="100" cy="80" rx="35" ry="32" fill="#ffa500" stroke="#000" stroke-width="2"/>
  <polygon points="70,65 75,40 85,60" fill="#ffa500" stroke="#000" stroke-width="2"/>
  <polygon points="130,65 125,40 115,60" fill="#ffa500" stroke="#000" stroke-width="2"/>
  <circle cx="88" cy="75" r="3" fill="#000"/>
  <circle cx="112" cy="75" r="3" fill="#000"/>
  <polygon points="100,85 95,95 105,95" fill="#ffb6c1" stroke="#000" stroke-width="1"/>
  <path d="M 100 95 Q 90 105 85 110" stroke="#000" stroke-width="2" fill="none"/>
  <path d="M 100 95 Q 110 105 115 110" stroke="#000" stroke-width="2" fill="none"/>
  <path d="M 70 90 Q 50 95 45 100" stroke="#000" stroke-width="2" fill="none"/>
  <path d="M 130 90 Q 150 95 155 100" stroke="#000" stroke-width="2" fill="none"/>
  <ellipse cx="100" cy="180" rx="15" ry="45" fill="#ffa500" stroke="#000" stroke-width="2"/>
</svg>