<svg xmlns="http://www.w3.org/2000/svg" viewBox="0 0 400 400">
  <rect width="400" height="400" fill="#f5f5f5"/>
  <ellipse cx="200" cy="240" rx="90" ry="70" fill="#333"/>
  <circle cx="135" cy="180" r="25" fill="#333"/>
  <circle cx="265" cy="180" r="25" fill="#333"/>
  <circle cx="145" cy="170" r="4" fill="#fff"/>
  <circle cx="255" cy="170" r="4" fill="#fff"/>
  <polygon points="160,145 130,135 150,165" fill="#333"/>
  <polygon points="240,145 270,135 250,165" fill="#333"/>
  <polygon points="170,205 175,215 180,205" fill="#ffb6c1"/>
  <ellipse cx="200" cy="210" rx="3" ry="2" fill="#333"/>
  <path d="M 185 230 Q 200 240 215 230" stroke="#333" stroke-width="3" fill="none"/>
  <ellipse cx="120" cy="300" rx="20" ry="15" fill="#333"/>
  <ellipse cx="280" cy="300" rx="20" ry="15" fill="#333"/>
  <rect x="155" y="305" width="15" height="40" fill="#333" rx="5"/>
  <rect x="230" y="305" width="15" height="40" fill="#333" rx="5"/>
  <path d="M 190 270 Q 200 260 210 270" stroke="#ffb6c1" stroke-width="4" fill="none" opacity="0.5"/>
</svg>