<svg xmlns="http://www.w3.org/2000/svg" viewBox="0 0 400 400" width="100%" height="100%">
  <rect width="400" height="400" fill="#FDFBF7"/>
  
  <ellipse cx="200" cy="345" rx="100" ry="14" fill="#EBE5D9"/>
  
  <path d="M 240 300 C 330 310, 350 200, 290 170" fill="none" stroke="#FF9F1C" stroke-width="24" stroke-linecap="round"/>
  
  <rect x="130" y="180" width="140" height="160" rx="70" fill="#FF9F1C"/>
  
  <rect x="150" y="320" width="34" height="26" rx="13" fill="#F48C06"/>
  <rect x="216" y="320" width="34" height="26" rx="13" fill="#F48C06"/>
  
  <polygon points="145,120 120,45 185,90" fill="#FF9F1C"/>
  <polygon points="255,120 280,45 215,90" fill="#FF9F1C"/>
  
  <polygon points="147,110 132,65 175,92" fill="#F48C06"/>
  <polygon points="253,110 268,65 225,92" fill="#F48C06"/>
  
  <circle cx="200" cy="155" r="75" fill="#FF9F1C"/>
  
  <path d="M 135 205 Q 200 235 265 205" fill="none" stroke="#2A9D8F" stroke-width="10" stroke-linecap="round"/>
  <circle cx="200" cy="228" r="12" fill="#E9C46A"/>
  <circle cx="200" cy="228" r="8" fill="#F4A261"/>
  
  <circle cx="150" cy="168" r="12" fill="#E76F51" opacity="0.3"/>
  <circle cx="250" cy="168" r="12" fill="#E76F51" opacity="0.3"/>
  
  <circle cx="165" cy="150" r="7" fill="#264653"/>
  <circle cx="235" cy="150" r="7" fill="#264653"/>
  
  <circle cx="167" cy="148" r="2" fill="#FDFBF7"/>
  <circle cx="237" cy="148" r="2" fill="#FDFBF7"/>
  
  <polygon points="194,168 206,168 200,176" fill="#264653"/>
  
  <path d="M 190 182 Q 195 188 200 182 Q 205 188 210 182" fill="none" stroke="#264653" stroke-width="3" stroke-linecap="round"/>
  
  <line x1="115" y1="160" x2="145" y2="165" stroke="#264653" stroke-width="2.5" stroke-linecap="round"/>
  <line x1="110" y1="172" x2="142" y2="174" stroke="#264653" stroke-width="2.5" stroke-linecap="round"/>
  
  <line x1="285" y1="160" x2="255" y2="165" stroke="#264653" stroke-width="2.5" stroke-linecap="round"/>
  <line x1="290" y1="172" x2="258" y2="174" stroke="#264653" stroke-width="2.5" stroke-linecap="round"/>
</svg>