<svg xmlns="http://www.w3.org/2000/svg" viewBox="0 0 400 400" width="100%" height="100%">
  <rect width="400" height="400" fill="#FAFAFA"/>
  <path d="M 80 332 L 80 200 A 120 120 0 0 1 320 200 L 320 332 Z" fill="#FDEBD0"/>
  <ellipse cx="200" cy="332" rx="85" ry="8" fill="#E5E7E9"/>
  <path d="M 255 290 C 320 310 330 220 285 195" fill="none" stroke="#2C3E50" stroke-width="22" stroke-linecap="round"/>
  <polygon points="145,95 125,35 175,85" fill="#2C3E50"/>
  <polygon points="255,95 275,35 225,85" fill="#2C3E50"/>
  <polygon points="147,88 134,50 168,82" fill="#FF7675"/>
  <polygon points="253,88 266,50 232,82" fill="#FF7675"/>
  <path d="M 130 325 C 130 220 155 170 200 170 C 245 170 270 220 270 325 Z" fill="#2C3E50"/>
  <rect x="158" y="310" width="30" height="22" rx="11" fill="#1A252F"/>
  <rect x="212" y="310" width="30" height="22" rx="11" fill="#1A252F"/>
  <path d="M 152 185 Q 200 210 248 185" fill="none" stroke="#1DD1A1" stroke-width="8" stroke-linecap="round"/>
  <circle cx="200" cy="204" r="7" fill="#FECA57"/>
  <circle cx="200" cy="204" r="3" fill="#E67E22"/>
  <circle cx="200" cy="140" r="60" fill="#2C3E50"/>
  <path d="M 165 135 Q 175 125 185 135" fill="none" stroke="#FFFFFF" stroke-width="3" stroke-linecap="round"/>
  <path d="M 215 135 Q 225 125 235 135" fill="none" stroke="#FFFFFF" stroke-width="3" stroke-linecap="round"/>
  <polygon points="194,152 206,152 200,159" fill="#FF7675"/>
  <path d="M 200 159 L 200 165 Q 194 172 186 166 M 200 165 Q 206 172 214 166" fill="none" stroke="#FFFFFF" stroke-width="2.5" stroke-linecap="round"/>
  <line x1="170" y1="152" x2="110" y2="145" stroke="#FFFFFF" stroke-width="2" stroke-linecap="round" opacity="0.6"/>
  <line x1="170" y1="160" x2="110" y2="165" stroke="#FFFFFF" stroke-width="2" stroke-linecap="round" opacity="0.6"/>
  <line x1="230" y1="152" x2="290" y2="145" stroke="#FFFFFF" stroke-width="2" stroke-linecap="round" opacity="0.6"/>
  <line x1="230" y1="160" x2="290" y2="165" stroke="#FFFFFF" stroke-width="2" stroke-linecap="round" opacity="0.6"/>
</svg>