<svg width="200" height="200" viewBox="0 0 200 200" xmlns="http://www.w3.org/2000/svg">
  <defs>
    <linearGradient id="furGrad1" x1="0%" y1="0%" x2="100%" y2="0%">
      <stop offset="0%" style="stop-color:rgb(192,192,192);stop-opacity:1" />
      <stop offset="100%" style="stop-color:rgb(128,128,128);stop-opacity:1" />
    </linearGradient>
    <linearGradient id="furGrad2" x1="0%" y1="0%" x2="100%" y2="0%">
      <stop offset="0%" style="stop-color:rgb(224,224,224);stop-opacity:1" />
      <stop offset="100%" style="stop-color:rgb(160,160,160);stop-opacity:1" />
    </linearGradient>
    <linearGradient id="furGrad3" x1="0%" y1="0%" x2="100%" y2="0%">
      <stop offset="0%" style="stop-color:rgb(200,200,200);stop-opacity:1" />
      <stop offset="100%" style="stop-color:rgb(144,144,144);stop-opacity:1" />
    </linearGradient>
  </defs>
  <g transform="translate(100,100) scale(0.8)">
    <path d="M-60,-40 C-60,-40 -20,-70 20,-70 C60,-70 60,-40 60,-40 L60,40 C60,40 15,65 -20,65 C-55,65 -60,40 -60,40 Z" fill="url(#furGrad1)" />
    <path d="M-30,-25 C-30,-25 0,-50 30,-25 C60,-25 30,10 30,10 L30,35 C30,35 0,55 -30,35 C-60,15 -30,-15 -30,-25 Z" fill="url(#furGrad2)" />
    <path d="M-80,-45 C-80,-45 -40,-80 0,-80 C40,-80 80,-45 80,-45 L80,35 C80,35 40,70 0,70 C-40,70 -80,35 -80,35 Z" fill="url(#furGrad3)" />
    <circle cx="-35" cy="30" r="5" fill="black" />
    <circle cx="35" cy="30" r="5" fill="black" />
    <path d="M-25,40 C-25,40 -10,50 5,45 C15,55 25,40 25,40 Z" fill="black" />
  </g>
</svg>