<svg width="500" height="500" viewBox="0 0 500 500" xmlns="http://www.w3.org/2000/svg">
  <defs>
    <linearGradient id="fur" x1="0%" y1="0%" x2="100%" y2="0%">
      <stop offset="0%" style="stop-color:rgb(224,224,224);stop-opacity:1" />
      <stop offset="50%" style="stop-color:rgb(192,192,192);stop-opacity:1" />
      <stop offset="100%" style="stop-color:rgb(160,160,160);stop-opacity:1" />
    </linearGradient>
  </defs>
  <path d="M150 50c0-27.61 22.39-50 50-50s50 22.39 50 50l-30 250-130 50-110-50 30-250zM200 250q0-20-15-35t-35-15-35 15-15 35 15 35 35 15 35-15 15-35zm100 0q0-20-15-35t-35-15-35 15-15 35 15 35 35 15 35-15 15-35zm-50-100q-20 0-35-15t-15-35 15-35 35-15 35 15 15 35-15 35-35 15zm0 200q-30 0-52.5-20.5t-31.5-54.5q0-22 12.5-40.5t37-28.5 37-12 28.5-37 12-37q0-28-15.5-50t-46.5-32-46.5 32-15.5 50q-22 22-33 48.5t-11 54.5 11 54.5 33 48.5q28 28 50 15.5t32-46.5 32 46.5 15.5 50q20 0 38.5-11.5t33.5-28.5 23-37q22-22 22-48.5z" fill="url(#fur)" stroke="#000" stroke-width="2" />
</svg>