<svg xmlns="http://www.w3.org/2000/svg" viewBox="0 0 200 200">
  <polygon points="100,20 80,60 120,60" fill="#ff9e80" stroke="#000" stroke-width="1"/>
  <polygon points="80,60 60,100 100,100" fill="#ffcc80" stroke="#000" stroke-width="1"/>
  <polygon points="120,60 140,100 100,100" fill="#ffcc80" stroke="#000" stroke-width="1"/>
  <polygon points="60,100 80,140 100,100" fill="#ffab91" stroke="#000" stroke-width="1"/>
  <polygon points="140,100 120,140 100,100" fill="#ffab91" stroke="#000" stroke-width="1"/>
  <polygon points="80,140 100,180 120,140" fill="#ff9e80" stroke="#000" stroke-width="1"/>
  <polygon points="100,100 90,120 110,120" fill="#000" stroke="#000" stroke-width="1"/>
  <polygon points="70,80 80,90 90,80" fill="#000" stroke="#000" stroke-width="1"/>
  <polygon points="110,80 120,90 130,80" fill="#000" stroke="#000" stroke-width="1"/>
  <polygon points="95,140 100,150 105,140" fill="#000" stroke="#000" stroke-width="1"/>
</svg>