<svg xmlns="http://www.w3.org/2000/svg" viewBox="0 0 200 200">
  <polygon points="100,20 140,60 100,100 60,60" fill="#f9c846" stroke="#333" stroke-width="2"/>
  <polygon points="100,100 140,140 100,180 60,140" fill="#f9c846" stroke="#333" stroke-width="2"/>
  <polygon points="140,60 180,80 140,100 100,80" fill="#e8b341" stroke="#333" stroke-width="1"/>
  <polygon points="60,60 20,80 60,100 100,80" fill="#e8b341" stroke="#333" stroke-width="1"/>
  <circle cx="80" cy="70" r="5" fill="#333"/>
  <circle cx="120" cy="70" r="5" fill="#333"/>
  <polygon points="100,80 110,90 100,100 90,90" fill="#d4a13a" stroke="#333" stroke-width="1"/>
  <polygon points="140,140 180,120 180,160 140,180" fill="#e8b341" stroke="#333" stroke-width="1"/>
  <polygon points="60,140 20,120 20,160 60,180" fill="#e8b341" stroke="#333" stroke-width="1"/>
  <polygon points="100,100 120,120 100,140 80,120" fill="#d4a13a" stroke="#333" stroke-width="1"/>
</svg>