<svg width="200px" height="300px" xmlns="http://www.w3.org/2000/svg" version="1.1" xmlns:xlink="http://www.w3.org/1999/xlink">
  <defs>
    <radialGradient id="furGradient" cx="50%" cy="50%" r="50%" fx="50%" fy="50%">
      <stop offset="0%" style="stop-color:rgb(169,169,169);stop-opacity:1" />
      <stop offset="100%" style="stop-color:rgb(105,105,105);stop-opacity:1" />
    </radialGradient>
    <radialGradient id="highlightGradient" cx="50%" cy="50%" r="50%" fx="50%" fy="50%">
      <stop offset="0%" style="stop-color:rgb(211,211,211);stop-opacity:1" />
      <stop offset="100%" style="stop-color:rgb(169,169,169);stop-opacity:0" />
    </radialGradient>
  </defs>
  <g transform="translate(20, 60)">
    <ellipse cx="80" cy="160" rx="50" ry="90" fill="url(#furGradient)" />
    <ellipse cx="80" cy="110" rx="60" ry="70" fill="url(#furGradient)" />
    <circle cx="60" cy="60" r="25" fill="url(#highlightGradient)" />
    <circle cx="100" cy="60" r="25" fill="url(#highlightGradient)" />
    <ellipse cx="60" cy="60" rx="10" ry="15" fill="black" />
    <ellipse cx="100" cy="60" rx="10" ry="15" fill="black" />
    <path d="M 70 80 Q 80 90, 90 80" stroke="black" stroke-width="2" fill="none" />
    <ellipse cx="80" cy="85" rx="5" ry="3" fill="black" />
    <path d="M 30 140 Q 10 80, 30 60" stroke="#696969" stroke-width="3" fill="none" />
    <path d="M 130 140 Q 150 80, 130 60" stroke="#696969" stroke-width="3" fill="none" />
    <line x1="75" y1="180" x2="85" y2="180" stroke="#696969" stroke-width="3" />
    <path d="M 60 230 C 65 240, 95 240, 100 230" stroke="#2F4F4F" stroke-width="4" fill="none" />
  </g>
</svg>