<svg xmlns="http://www.w3.org/2000/svg" viewBox="0 0 200 200"><circle cx="65" cy="172" r="18" fill="none" stroke="#4dc9ff" stroke-width="4"/><circle cx="145" cy="172" r="18" fill="none" stroke="#4dc9ff" stroke-width="4"/><path d="M65 172 L100 140 L145 172 M100 140 L118 172" stroke="#4dc9ff" stroke-width="4" fill="none"/><rect x="55" y="76" width="100" height="88" rx="26" fill="#95a3b0"/><path d="M56 70 L66 40 L80 66 Z" fill="#95a3b0"/><path d="M120 66 L134 40 L144 70 Z" fill="#95a3b0"/><circle cx="86" cy="106" r="6" fill="#1d242b"/><circle cx="124" cy="106" r="6" fill="#1d242b"/><path d="M96 124 Q105 132 114 124" stroke="#1d242b" stroke-width="3" fill="none" stroke-linecap="round"/><path d="M56 116 H80 M56 126 Q68 124 80 122 M130 122 Q142 124 154 126 M130 116 H154" stroke="#1d242b" stroke-width="2" fill="none" stroke-linecap="round"/></svg>