<svg width="500" height="500" viewBox="0 0 500 500" xmlns="http://www.w3.org/2000/svg">
  <g transform="translate(250 250)">
    <g transform="scale(0.8)">
      <circle cx="0" cy="0" r="150" fill="#ffd400"/>
      <g transform="rotate(20)">
        <rect x="-100" y="-20" width="200" height="40" fill="#333333"/>
        <circle cx="-70" cy="0" r="20" fill="#ffffff"/>
        <circle cx="70" cy="0" r="20" fill="#ffffff"/>
      </g>
      <g transform="translate(0 -120)">
        <rect x="-50" y="-10" width="100" height="20" fill="#333333"/>
        <ellipse cx="0" cy="0" rx="35" ry="50" fill="#333333"/>
        <g transform="translate(-30 0)">
          <circle cx="0" cy="0" r="15" fill="#ffffff"/>
          <circle cx="0" cy="0" r="10" fill="#333333"/>
        </g>
        <g transform="translate(30 0)">
          <circle cx="0" cy="0" r="15" fill="#ffffff"/>
          <circle cx="0" cy="0" r="10" fill="#333333"/>
        </g>
      </g>
      <g transform="translate(0 120)">
        <rect x="-50" y="-10" width="100" height="20" fill="#333333"/>
        <ellipse cx="0" cy="0" rx="35" ry="50" fill="#333333"/>
        <g transform="translate(-30 0)">
          <circle cx="0" cy="0" r="15" fill="#ffffff"/>
          <circle cx="0" cy="0" r="10" fill="#333333"/>
        </g>
        <g transform="translate(30 0)">
          <circle cx="0" cy="0" r="15" fill="#ffffff"/>
          <circle cx="0" cy="0" r="10" fill="#333333"/>
        </g>
      </g>
      <g transform="translate(-120 0)">
        <rect x="-50" y="-10" width="100" height="20" fill="#333333"/>
        <ellipse cx="0" cy="0" rx="35" ry="50" fill="#333333"/>
        <g transform="translate(-30 0)">
          <circle cx="0" cy="0" r="15" fill="#ffffff"/>
          <circle cx="0" cy="0" r="10" fill="#333333"/>
        </g>
        <g transform="translate(30 0)">
          <circle cx="0" cy="0" r="15" fill="#ffffff"/>
          <circle cx="0" cy="0" r="10" fill="#333333"/>
        </g>
      </g>
      <g transform="translate(120 0)">
        <rect x="-50" y="-10" width="100" height="20" fill="#333333"/>
        <ellipse cx="0" cy="0" rx="35" ry="50" fill="#333333"/>
        <g transform="translate(-30 0)">
          <circle cx="0" cy="0" r="15" fill="#ffffff"/>
          <circle cx="0" cy="0" r="10" fill="#333333"/>
        </g>
        <g transform="translate(30 0)">
          <circle cx="0" cy="0" r="15" fill="#ffffff"/>
          <circle cx="0" cy="0" r="10" fill="#333333"/>
        </g>
      </g>
    </g>
  </g>
  <g transform="translate(100 400)">
    <rect x="-75" y="-50" width="150" height="100" fill="#333333"/>
    <circle cx="0" cy="0" r="50" fill="#333333"/>
    <g transform="translate(-30 0)">
      <rect x="-20" y="-40" width="40" height="80" fill="#888888"/>
      <circle cx="0" cy="0" r="20" fill="#333333"/>
    </g>
    <g transform="translate(30 0)">
      <rect x="-20" y="-40" width="40" height="80" fill="#888888"/>
      <circle cx="0" cy="0" r="20" fill="#333333"/>
    </g>
    <g transform="translate(0 -40)">
      <rect x="-30" y="-15" width="60" height="30" fill="#888888"/>
      <circle cx="0" cy="0" r="15" fill="#333333"/>
    </g>
  </g>
</svg>