<svg xmlns="http://www.w3.org/2000/svg" viewBox="0 0 400 300" width="400" height="300">
  <rect width="100%" height="100%" fill="#87CEEB"/>
  <circle cx="350" cy="50" r="30" fill="#FFD700" />
  <path d="M330 40 L350 20 L370 40 Z" fill="#FFD700"/>
  <path d="M320 50 L380 50" stroke="#FFD700" stroke-width="2"/>
  <path d="M340 60 L360 60" stroke="#FFD700" stroke-width="2"/>
  <ellipse cx="200" cy="150" rx="80" ry="40" fill="#F5DEB3" transform="rotate(-10 200 150)"/>
  <circle cx="170" cy="130" r="15" fill="#F5DEB3"/>
  <circle cx="230" cy="130" r="15" fill="#F5DEB3"/>
  <polygon points="160,120 170,115 180,120" fill="#000"/>
  <polygon points="220,120 230,115 240,120" fill="#000"/>
  <circle cx="175" cy="135" r="5" fill="#000"/>
  <circle cx="225" cy="135" r="5" fill="#000"/>
  <path d="M190 140 Q200 150 210 140" stroke="#000" stroke-width="2" fill="none"/>
  <path d="M180 160 Q200 170 220 160" stroke="#8B4513" stroke-width="8" fill="none"/>
  <ellipse cx="130" cy="190" rx="20" ry="15" fill="#F5DEB3"/>
  <ellipse cx="270" cy="190" rx="20" ry="15" fill="#F5DEB3"/>
  <path d="M110 190 L90 210 L150 210 Z" fill="#F5DEB3"/>
  <path d="M290 190 L270 210 L330 210 Z" fill="#F5DEB3"/>
  <circle cx="130" cy="190" r="10" fill="#8B4513"/>
  <circle cx="270" cy="190" r="10" fill="#8B4513"/>
  <path d="M100 200 L50 220" stroke="#333" stroke-width="8" fill="none"/>
  <path d="M300 200 L350 220" stroke="#333" stroke-width="8" fill="none"/>
  <circle cx="100" cy="200" r="20" fill="#333"/>
  <circle cx="300" cy="200" r="20" fill="#333"/>
  <circle cx="100" cy="200" r="10" fill="#FFF"/>
  <circle cx="300" cy="200" r="10" fill="#FFF"/>
  <path d="M100 200 L150 170" stroke="#333" stroke-width="5" fill="none"/>
  <path d="M300 200 L250 170" stroke="#333" stroke-width="5" fill="none"/>
  <rect x="180" y="170" width="40" height="20" fill="#333" rx="5"/>
  <path d="M200 170 L200 150 L220 140" stroke="#333" stroke-width="5" fill="none"/>
  <path d="M150 230 Q200 250 250 230" stroke="#228B22" stroke-width="3" fill="none"/>
  <path d="M160 240 Q200 260 240 240" stroke="#228B22" stroke-width="2" fill="none"/>
</svg>