<svg xmlns="http://www.w3.org/2000/svg" viewBox="0 0 200 200" width="200" height="200">
  <rect width="200" height="200" fill="#87CEEB"/>
  <circle cx="150" cy="30" r="20" fill="#FFD700"/>
  <path d="M140,20 Q150,10 160,20 Q165,25 160,30 Q150,25 140,30 Q135,25 140,20" fill="#FFD700"/>
  <path d="M30,150 Q50,130 70,150 Q90,170 70,190 Q50,210 30,190 Q10,170 30,150" fill="#FFA500"/>
  <path d="M130,150 Q150,130 170,150 Q190,170 170,190 Q150,210 130,190 Q110,170 130,150" fill="#FFA500"/>
  <circle cx="70" cy="170" r="25" fill="#FFA500"/>
  <circle cx="170" cy="170" r="25" fill="#FFA500"/>
  <path d="M50,160 Q70,150 90,160 Q90,180 70,190 Q50,180 50,160" fill="#333"/>
  <path d="M150,160 Q170,150 190,160 Q190,180 170,190 Q150,180 150,160" fill="#333"/>
  <path d="M70,145 L90,130 L110,145" fill="none" stroke="#333" stroke-width="3"/>
  <path d="M130,145 L150,130 L170,145" fill="none" stroke="#333" stroke-width="3"/>
  <rect x="85" y="100" width="30" height="40" fill="#8B4513" rx="5"/>
  <path d="M90,110 L70,90 L90,100 Z" fill="#8B4513"/>
  <path d="M110,110 L130,90 L110,100 Z" fill="#8B4513"/>
  <circle cx="95" cy="130" r="8" fill="#333"/>
  <circle cx="105" cy="130" r="8" fill="#333"/>
  <path d="M95,125 L105,125" stroke="#333" stroke-width="2"/>
  <path d="M60,100 Q70,90 80,100 Q90,110 80,120 Q70,130 60,120 Q50,110 60,100" fill="#FFF"/>
  <path d="M120,100 Q130,90 140,100 Q150,110 140,120 Q130,130 120,120 Q110,110 120,100" fill="#FFF"/>
  <circle cx="68" cy="105" r="3" fill="#000"/>
  <circle cx="128" cy="105" r="3" fill="#000"/>
  <path d="M70,115 Q75,120 80,115" stroke="#000" stroke-width="1" fill="none"/>
  <path d="M120,115 Q125,120 130,115" stroke="#000" stroke-width="1" fill="none"/>
  <path d="M80,140 Q90,145 100,140" stroke="#000" stroke-width="2" fill="none"/>
  <path d="M100,80 L100,70 L90,60" stroke="#333" stroke-width="2" fill="none"/>
  <path d="M100,70 L110,60" stroke="#333" stroke-width="2" fill="none"/>
  <path d="M90,60 Q100,50 110,60" stroke="#333" stroke-width="2" fill="none"/>
  <path d="M120,80 L120,70 L130,65" stroke="#333" stroke-width="2" fill="none"/>
  <path d="M120,70 L110,65" stroke="#333" stroke-width="2" fill="none"/>
  <ellipse cx="50" cy="180" rx="5" ry="3" fill="#333"/>
  <ellipse cx="190" cy="180" rx="5" ry="3" fill="#333"/>
</svg>