<svg xmlns="http://www.w3.org/2000/svg" viewBox="0 0 200 200" width="200" height="200">
  <rect width="200" height="200" fill="#87CEEB"/>
  <circle cx="150" cy="30" r="20" fill="#FFD700"/>
  <path d="M130 30 Q150 10 170 30" fill="none" stroke="#FFD700" stroke-width="2"/>
  <path d="M140 20 L145 25 L155 15" stroke="#FFD700" stroke-width="2" fill="none"/>
  <path d="M160 20 L155 25 L165 15" stroke="#FFD700" stroke-width="2" fill="none"/>

  <!-- Bicycle -->
  <circle cx="100" cy="140" r="25" fill="none" stroke="#333" stroke-width="3"/>
  <circle cx="150" cy="140" r="25" fill="none" stroke="#333" stroke-width="3"/>
  <line x1="100" y1="140" x2="125" y2="115" stroke="#333" stroke-width="3"/>
  <line x1="150" y1="140" x2="125" y2="115" stroke="#333" stroke-width="3"/>
  <line x1="125" y1="115" x2="100" y2="90" stroke="#333" stroke-width="3"/>
  <line x1="100" y1="90" x2="80" y2="90" stroke="#333" stroke-width="3"/>
  <line x1="100" y1="90" x2="100" y2="65" stroke="#333" stroke-width="3"/>
  <line x1="125" y1="115" x2="150" y2="90" stroke="#333" stroke-width="3"/>
  <circle cx="100" cy="140" r="10" fill="#333"/>
  <circle cx="150" cy="140" r="10" fill="#333"/>

  <!-- Cat -->
  <ellipse cx="100" cy="80" rx="15" ry="20" fill="#FFA500"/>
  <circle cx="95" cy="75" r="3" fill="#000"/>
  <circle cx="105" cy="75" r="3" fill="#000"/>
  <path d="M95 85 Q100 90 105 85" fill="#000"/>
  <path d="M100 60 L95 55 L100 50 L105 55 Z" fill="#FFA500"/>
  <path d="M85 75 L80 70 L85 65" stroke="#000" stroke-width="1.5" fill="none"/>
  <path d="M115 75 L120 70 L115 65" stroke="#000" stroke-width="1.5" fill="none"/>
  <path d="M90 90 L85 95 L90 100" stroke="#000" stroke-width="1.5" fill="none"/>
  <path d="M110 90 L115 95 L110 100" stroke="#000" stroke-width="1.5" fill="none"/>
  <line x1="100" y1="80" x2="100" y2="100" stroke="#FFA500" stroke-width="3"/>
  <line x1="100" y1="100" x2="90" y2="110" stroke="#FFA500" stroke-width="3"/>
  <line x1="100" y1="100" x2="110" y2="110" stroke="#FFA500" stroke-width="3"/>
  <line x1="90" y1="110" x2="85" y2="120" stroke="#FFA500" stroke-width="3"/>
  <line x1="110" y1="110" x2="115" y2="120" stroke="#FFA500" stroke-width="3"/>
</svg>