<svg xmlns="http://www.w3.org/2000/svg" viewBox="0 0 100 100" width="200" height="200">
  <rect width="100" height="100" fill="#f9f9f9"/>
  <path d="M50 30c-8 0-15 6-15 14 0 3 1 6 3 8l-10 12c-2 2-2 5 0 7l8 6c2 2 5 2 7 0l6-5c2 1 4 1 6 1s4 0 6-1l6 5c2 2 5 2 7 0l8-6c2-2 2-5 0-7l-10-12c2-2 3-5 3-8 0-8-7-14-15-14z" fill="#333"/>
  <circle cx="42" cy="45" r="3" fill="#fff"/>
  <circle cx="58" cy="45" r="3" fill="#fff"/>
  <circle cx="42" cy="45" r="1.5" fill="#333"/>
  <circle cx="58" cy="45" r="1.5" fill="#333"/>
  <path d="M50 55c-2 0-4 2-4 4v3c0 2 2 4 4 4s4-2 4-4v-3c0-2-2-4-4-4z" fill="#333"/>
  <path d="M35 60c-5-5-5-13 0-18 2-2 5-3 8-3s6 1 8 3c5 5 5 13 0 18-2 2-5 3-8 3s-6-1-8-3z" fill="#333"/>
  <path d="M65 60c5-5 5-13 0-18-2-2-5-3-8-3s-6 1-8 3c-5 5-5 13 0 18 2 2 5 3 8 3s6-1 8-3z" fill="#333"/>
</svg>