<svg xmlns="http://www.w3.org/2000/svg" viewBox="0 0 48 48" shape-rendering="crispEdges">
<rect width="48" height="48" rx="9" fill="#120a26"/>
<rect x="4" y="4" width="4" height="4" fill="#ffde59"/><rect x="40" y="4" width="4" height="4" fill="#ffde59"/><rect x="4" y="8" width="4" height="4" fill="#ffde59"/><rect x="8" y="8" width="4" height="4" fill="#ffde59"/><rect x="36" y="8" width="4" height="4" fill="#ffde59"/><rect x="40" y="8" width="4" height="4" fill="#ffde59"/><rect x="4" y="12" width="4" height="4" fill="#ffde59"/><rect x="8" y="12" width="4" height="4" fill="#ffde59"/><rect x="12" y="12" width="4" height="4" fill="#ffde59"/><rect x="32" y="12" width="4" height="4" fill="#ffde59"/><rect x="36" y="12" width="4" height="4" fill="#ffde59"/><rect x="40" y="12" width="4" height="4" fill="#ffde59"/><rect x="4" y="16" width="4" height="4" fill="#ffde59"/><rect x="8" y="16" width="4" height="4" fill="#ffde59"/><rect x="12" y="16" width="4" height="4" fill="#ffde59"/><rect x="16" y="16" width="4" height="4" fill="#ffde59"/><rect x="20" y="16" width="4" height="4" fill="#ffde59"/><rect x="24" y="16" width="4" height="4" fill="#ffde59"/><rect x="28" y="16" width="4" height="4" fill="#ffde59"/><rect x="32" y="16" width="4" height="4" fill="#ffde59"/><rect x="36" y="16" width="4" height="4" fill="#ffde59"/><rect x="40" y="16" width="4" height="4" fill="#ffde59"/><rect x="0" y="20" width="4" height="4" fill="#ffde59"/><rect x="4" y="20" width="4" height="4" fill="#ffde59"/><rect x="8" y="20" width="4" height="4" fill="#ffde59"/><rect x="12" y="20" width="4" height="4" fill="#ffde59"/><rect x="16" y="20" width="4" height="4" fill="#ffde59"/><rect x="20" y="20" width="4" height="4" fill="#ffde59"/><rect x="24" y="20" width="4" height="4" fill="#ffde59"/><rect x="28" y="20" width="4" height="4" fill="#ffde59"/><rect x="32" y="20" width="4" height="4" fill="#ffde59"/><rect x="36" y="20" width="4" height="4" fill="#ffde59"/><rect x="40" y="20" width="4" height="4" fill="#ffde59"/><rect x="44" y="20" width="4" height="4" fill="#ffde59"/><rect x="0" y="24" width="4" height="4" fill="#ffde59"/><rect x="4" y="24" width="4" height="4" fill="#ffde59"/><rect x="16" y="24" width="4" height="4" fill="#ffde59"/><rect x="20" y="24" width="4" height="4" fill="#ffde59"/><rect x="24" y="24" width="4" height="4" fill="#ffde59"/><rect x="28" y="24" width="4" height="4" fill="#ffde59"/><rect x="40" y="24" width="4" height="4" fill="#ffde59"/><rect x="44" y="24" width="4" height="4" fill="#ffde59"/><rect x="0" y="28" width="4" height="4" fill="#ffde59"/><rect x="4" y="28" width="4" height="4" fill="#ffde59"/><rect x="8" y="28" width="4" height="4" fill="#ffde59"/><rect x="12" y="28" width="4" height="4" fill="#ffde59"/><rect x="16" y="28" width="4" height="4" fill="#ffde59"/><rect x="20" y="28" width="4" height="4" fill="#ff3d81"/><rect x="24" y="28" width="4" height="4" fill="#ff3d81"/><rect x="28" y="28" width="4" height="4" fill="#ffde59"/><rect x="32" y="28" width="4" height="4" fill="#ffde59"/><rect x="36" y="28" width="4" height="4" fill="#ffde59"/><rect x="40" y="28" width="4" height="4" fill="#ffde59"/><rect x="44" y="28" width="4" height="4" fill="#ffde59"/><rect x="0" y="32" width="4" height="4" fill="#ffde59"/><rect x="4" y="32" width="4" height="4" fill="#ffde59"/><rect x="8" y="32" width="4" height="4" fill="#ffde59"/><rect x="12" y="32" width="4" height="4" fill="#ffde59"/><rect x="16" y="32" width="4" height="4" fill="#ffde59"/><rect x="20" y="32" width="4" height="4" fill="#ffde59"/><rect x="24" y="32" width="4" height="4" fill="#ffde59"/><rect x="28" y="32" width="4" height="4" fill="#ffde59"/><rect x="32" y="32" width="4" height="4" fill="#ffde59"/><rect x="36" y="32" width="4" height="4" fill="#ffde59"/><rect x="40" y="32" width="4" height="4" fill="#ffde59"/><rect x="44" y="32" width="4" height="4" fill="#ffde59"/><rect x="4" y="36" width="4" height="4" fill="#ffde59"/><rect x="8" y="36" width="4" height="4" fill="#ffde59"/><rect x="12" y="36" width="4" height="4" fill="#ffde59"/><rect x="16" y="36" width="4" height="4" fill="#ffde59"/><rect x="20" y="36" width="4" height="4" fill="#ffde59"/><rect x="24" y="36" width="4" height="4" fill="#ffde59"/><rect x="28" y="36" width="4" height="4" fill="#ffde59"/><rect x="32" y="36" width="4" height="4" fill="#ffde59"/><rect x="36" y="36" width="4" height="4" fill="#ffde59"/><rect x="40" y="36" width="4" height="4" fill="#ffde59"/><rect x="8" y="40" width="4" height="4" fill="#ffde59"/><rect x="12" y="40" width="4" height="4" fill="#ffde59"/><rect x="16" y="40" width="4" height="4" fill="#ffde59"/><rect x="20" y="40" width="4" height="4" fill="#ffde59"/><rect x="24" y="40" width="4" height="4" fill="#ffde59"/><rect x="28" y="40" width="4" height="4" fill="#ffde59"/><rect x="32" y="40" width="4" height="4" fill="#ffde59"/><rect x="36" y="40" width="4" height="4" fill="#ffde59"/>
</svg>
