<svg xmlns="http://www.w3.org/2000/svg" viewBox="0 0 300 300">
  <defs>
    <linearGradient id="furGradient" x1="50%" y1="0%" x2="50%" y2="100%">
      <stop offset="0%" stop-color="#8B4513"/>
      <stop offset="100%" stop-color="#654321"/>
    </linearGradient>
    <filter id="furFilter" x="-20%" y="-20%" width="140%" height="140%">
      <feTurbulence type="fractalNoise" baseFrequency="0.05" numOctaves="3" result="noise"/>
      <feDisplacementMap in="SourceGraphic" in2="noise" scale="5" xChannelSelector="R" yChannelSelector="G"/>
    </filter>
  </defs>
  
  <path d="M150,200 Q130,180 110,190 Q90,200 80,180 Q70,160 90,150 Q110,140 120,120 Q130,100 150,110 Q170,120 180,110 Q190,100 200,120 Q210,140 230,150 Q250,160 240,180 Q230,200 210,190 Q190,180 170,200 Z" fill="url(#furGradient)" filter="url(#furFilter)" stroke="#333" stroke-width="1"/>
  
  <circle cx="130" cy="130" r="10" fill="#FFD700"/>
  <circle cx="170" cy="130" r="10" fill="#FFD700"/>
  <circle cx="130" cy="130" r="5" fill="#000"/>
  <circle cx="170" cy="130" r="5" fill="#000"/>
  
  <path d="M140,160 Q150,170 160,160" fill="none" stroke="#000" stroke-width="2"/>
  
  <path d="M100,110 Q90,100 80,110" fill="none" stroke="#000" stroke-width="1.5"/>
  <path d="M220,110 Q210,100 200,110" fill="none" stroke="#000" stroke-width="1.5"/>
  
  <path d="M120,80 Q130,70 140,80 Q150,90 140,100 Q130,110 120,100 Q110,90 120,80 Z" fill="#FFD700" stroke="#000" stroke-width="1"/>
  <path d="M160,80 Q170,70 180,80 Q190,90 180,100 Q170,110 160,100 Q150,90 160,80 Z" fill="#FFD700" stroke="#000" stroke-width="1"/>
  
  <path d="M150,220 Q140,230 150,240 Q160,230 150,220 Z" fill="#000"/>
  
  <path d="M80,170 Q70,160 60,170 Q50,180 60,190 Q70,200 80,190 Q90,180 80,170 Z" fill="url(#furGradient)" filter="url(#furFilter)" stroke="#333" stroke-width="1"/>
  <path d="M220,170 Q230,160 240,170 Q250,180 240,190 Q230,200 220,190 Q210,180 220,170 Z" fill="url(#furGradient)" filter="url(#furFilter)" stroke="#333" stroke-width="1"/>
</svg>