<svg xmlns="http://www.w3.org/2000/svg" viewBox="0 0 200 220" width="200" height="220">
  <rect width="200" height="220" fill="#f5efe1"/>
  <ellipse cx="100" cy="175" rx="55" ry="42" fill="#3a3a3a"/>
  <path d="M145 165 Q190 150 180 110 Q175 90 160 95 Q165 120 140 140 Z" fill="#3a3a3a"/>
  <circle cx="100" cy="105" r="48" fill="#3a3a3a"/>
  <polygon points="60,72 70,28 96,68" fill="#3a3a3a"/>
  <polygon points="140,72 130,28 104,68" fill="#3a3a3a"/>
  <polygon points="66,66 72,42 86,64" fill="#f4b8c0"/>
  <polygon points="134,66 128,42 114,64" fill="#f4b8c0"/>
  <circle cx="82" cy="105" r="9" fill="#f4d35e"/>
  <circle cx="118" cy="105" r="9" fill="#f4d35e"/>
  <circle cx="82" cy="105" r="4" fill="#1a1a1a"/>
  <circle cx="118" cy="105" r="4" fill="#1a1a1a"/>
  <polygon points="100,118 92,128 108,128" fill="#f4b8c0"/>
  <path d="M100 128 Q95 138 88 132 M100 128 Q105 138 112 132" stroke="#1a1a1a" stroke-width="2" fill="none" stroke-linecap="round"/>
  <path d="M70 122 Q40 118 25 124 M70 128 Q42 134 28 138 M130 122 Q160 118 175 124 M130 128 Q158 134 172 138" stroke="#e8e8e8" stroke-width="1.2" fill="none" stroke-linecap="round"/>
</svg>