<svg viewBox="0 0 200 200" xmlns="http://www.w3.org/2000/svg">
  <ellipse cx="100" cy="140" rx="40" ry="35" fill="#4a4a4a"/>
  <path d="M70 100 Q100 60 130 100 L125 80 Q110 70 100 72 Q90 70 75 80 Z" fill="#4a4a4a"/>
  <circle cx="85" cy="95" r="4"/>
  <circle cx="115" cy="95" r="4"/>
  <circle cx="100" cy="105" r="2" fill="#ff69b4"/>
  <path d="M100 105 Q90 110 85 105 M100 105 Q110 110 115 105" stroke="#333" stroke-width="1.5" fill="none" stroke-linecap="round"/>
  <path d="M60 100 Q40 100 40 110 M140 100 Q160 100 160 110" stroke="#333" stroke-width="1" stroke-linecap="round"/>
  <ellipse cx="70" cy="160" rx="12" ry="8" fill="#4a4a4a"/>
  <ellipse cx="130" cy="160" rx="12" ry="8" fill="#4a4a4a"/>
  <path d="M140 150 Q180 140 170 180" stroke="#4a4a4a" stroke-width="8" fill="none" stroke-linecap="round"/>
  <ellipse cx="90" cy="85" rx="3" ry="5" fill="#fff"/>
  <ellipse cx="110" cy="85" rx="3" ry="5" fill="#fff"/>
</svg>