<svg xmlns="http://www.w3.org/2000/svg" viewBox="0 0 500 400">
  <rect width="500" height="400" fill="#87CEEB"/>
  <circle cx="150" cy="250" r="80" fill="#D3D3D3" stroke="black" stroke-width="3"/>
  <circle cx="350" cy="250" r="80" fill="#D3D3D3" stroke="black" stroke-width="3"/>
  <line x1="150" y1="250" x2="250" y2="180" stroke="black" stroke-width="5"/>
  <line x1="250" y1="180" x2="350" y2="250" stroke="black" stroke-width="5"/>
  <line x1="250" y1="180" x2="250" y2="120" stroke="black" stroke-width="5"/>
  <circle cx="250" cy="120" r="40" fill="#FFA07A" stroke="black" stroke-width="3"/>
  <circle cx="230" cy="110" r="5" fill="black"/>
  <circle cx="270" cy="110" r="5" fill="black"/>
  <path d="M230 130 Q250 140 270 130" stroke="black" fill="none" stroke-width="2"/>
  <ellipse cx="240" cy="80" rx="10" ry="5" fill="#FFA07A" stroke="black" stroke-width="2"/>
  <ellipse cx="260" cy="80" rx="10" ry="5" fill="#FFA07A" stroke="black" stroke-width="2"/>
  <line x1="150" y1="250" x2="100" y2="150" stroke="black" stroke-width="5"/>
  <line x1="350" y1="250" x2="400" y2="150" stroke="black" stroke-width="5"/>
  <rect x="180" y="120" width="140" height="30" rx="15" fill="#FFA07A" stroke="black" stroke-width="3"/>
  <circle cx="150" cy="250" r="10" fill="black"/>
  <circle cx="350" cy="250" r="10" fill="black"/>
</svg>